{
  "accessors": [
    {
      "bufferView": 2,
      "componentType": 5126,
      "count": 24,
      "max": [
        0.25,
        0.25,
        0.25
      ],
      "min": [
        -0.25,
        -0.25,
        -0.25
      ],
      "type": "VEC3"
    },
    {
      "bufferView": 2,
      "byteOffset": 288,
      "componentType": 5126,
      "count": 24,
      "max": [
        1.0,
        1.0,
        1.0
      ],
      "min": [
        -1.0,
        -1.0,
        -1.0
      ],
      "type": "VEC3"
    },
    {
      "bufferView": 0,
      "componentType": 5125,
      "count": 36,
      "type": "SCALAR"
    },
    {
      "bufferView": 2,
      "byteOffset": 576,
      "componentType": 5126,
      "count": 2699,
      "max": [
        1.9924073219299316,
        17.938194274902344,
        2.012439489364624
      ],
      "min": [
        -2.061305522918701,
        -19.209442138671875,
        -1.9143861532211304
      ],
      "type": "VEC3"
    },
    {
      "bufferView": 2,
      "byteOffset": 32964,
      "componentType": 5126,
      "count": 2699,
      "max": [
        1.0,
        1.0,
        1.0
      ],
      "min": [
        -1.0,
        -1.0,
        -1.0
      ],
      "type": "VEC3"
    },
    {
      "bufferView": 1,
      "componentType": 5126,
      "count": 2699,
      "max": [
        0.992946445941925,
        0.9885938167572021
      ],
      "min": [
        0.027520326897501945,
        0.015151500701904297
      ],
      "type": "VEC2"
    },
    {
      "bufferView": 0,
      "byteOffset": 144,
      "componentType": 5125,
      "count": 10380,
      "type": "SCALAR"
    },
    {
      "bufferView": 2,
      "byteOffset": 65352,
      "componentType": 5126,
      "count": 2088,
      "max": [
        1.5439709424972534,
        4.895343780517578,
        1.5439708232879639
      ],
      "min": [
        -1.6416966915130615,
        -6.46562385559082,
        -1.5439708232879639
      ],
      "type": "VEC3"
    },
    {
      "bufferView": 2,
      "byteOffset": 90408,
      "componentType": 5126,
      "count": 2088,
      "max": [
        1.0,
        1.0,
        1.0
      ],
      "min": [
        -1.0,
        -1.0,
        -1.0
      ],
      "type": "VEC3"
    },
    {
      "bufferView": 1,
      "byteOffset": 21592,
      "componentType": 5126,
      "count": 2088,
      "max": [
        0.9825117588043213,
        0.7820525169372559
      ],
      "min": [
        0.026723712682724,
        0.04601019620895386
      ],
      "type": "VEC2"
    },
    {
      "bufferView": 0,
      "byteOffset": 41664,
      "componentType": 5125,
      "count": 9774,
      "type": "SCALAR"
    },
    {
      "bufferView": 2,
      "byteOffset": 115464,
      "componentType": 5126,
      "count": 80,
      "max": [
        0.9786347150802612,
        1.2473845481872559,
        0.9786347150802612
      ],
      "min": [
        -0.9786347150802612,
        -0.5509309768676758,
        -0.9786347150802612
      ],
      "type": "VEC3"
    },
    {
      "bufferView": 2,
      "byteOffset": 116424,
      "componentType": 5126,
      "count": 80,
      "max": [
        1.0,
        0.7742666602134705,
        1.0
      ],
      "min": [
        -1.0,
        0.0,
        -1.0
      ],
      "type": "VEC3"
    },
    {
      "bufferView": 0,
      "byteOffset": 80760,
      "componentType": 5125,
      "count": 240,
      "type": "SCALAR"
    },
    {
      "bufferView": 2,
      "byteOffset": 117384,
      "componentType": 5126,
      "count": 8,
      "max": [
        0.09281939268112183,
        1.0209320783615112,
        0.7392774820327759
      ],
      "min": [
        -0.09281939268112183,
        0.860688328742981,
        0.5182900428771973
      ],
      "type": "VEC3"
    },
    {
      "bufferView": 2,
      "byteOffset": 117480,
      "componentType": 5126,
      "count": 8,
      "max": [
        0.5773564577102661,
        0.7192082405090332,
        0.7192082405090332
      ],
      "min": [
        -0.5773564577102661,
        -0.7192082405090332,
        -0.7192082405090332
      ],
      "type": "VEC3"
    },
    {
      "bufferView": 1,
      "byteOffset": 38296,
      "componentType": 5126,
      "count": 8,
      "max": [
        0.0,
        0.0
      ],
      "min": [
        0.0,
        0.0
      ],
      "type": "VEC2"
    },
    {
      "bufferView": 1,
      "byteOffset": 38360,
      "componentType": 5126,
      "count": 8,
      "max": [
        0.0,
        0.0
      ],
      "min": [
        0.0,
        0.0
      ],
      "type": "VEC2"
    },
    {
      "bufferView": 0,
      "byteOffset": 81720,
      "componentType": 5125,
      "count": 36,
      "type": "SCALAR"
    },
    {
      "bufferView": 2,
      "byteOffset": 117576,
      "componentType": 5126,
      "count": 524,
      "max": [
        2.1555471420288086,
        12.187166213989258,
        2.1334365101211006e-06
      ],
      "min": [
        -2.1555471420288086,
        0.3162860870361328,
        -2.155548095703125
      ],
      "type": "VEC3"
    },
    {
      "bufferView": 2,
      "byteOffset": 123864,
      "componentType": 5126,
      "count": 524,
      "max": [
        0.9523618817329407,
        1.0,
        1.0
      ],
      "min": [
        -0.9523618817329407,
        -1.0,
        -1.0
      ],
      "type": "VEC3"
    },
    {
      "bufferView": 1,
      "byteOffset": 38424,
      "componentType": 5126,
      "count": 524,
      "max": [
        0.0,
        0.0
      ],
      "min": [
        0.0,
        0.0
      ],
      "type": "VEC2"
    },
    {
      "bufferView": 1,
      "byteOffset": 42616,
      "componentType": 5126,
      "count": 524,
      "max": [
        0.9107115268707275,
        0.9829869270324707
      ],
      "min": [
        0.4263990521430969,
        0.04491853713989258
      ],
      "type": "VEC2"
    },
    {
      "bufferView": 0,
      "byteOffset": 81864,
      "componentType": 5125,
      "count": 2100,
      "type": "SCALAR"
    },
    {
      "bufferView": 2,
      "byteOffset": 130152,
      "componentType": 5126,
      "count": 707,
      "max": [
        2.1555471420288086,
        12.353507995605469,
        2.155548095703125
      ],
      "min": [
        -2.1555471420288086,
        0.3162879943847656,
        -0.3164067268371582
      ],
      "type": "VEC3"
    },
    {
      "bufferView": 2,
      "byteOffset": 138636,
      "componentType": 5126,
      "count": 707,
      "max": [
        0.9876921772956848,
        1.0,
        1.0
      ],
      "min": [
        -0.9876921772956848,
        -1.0,
        -1.0
      ],
      "type": "VEC3"
    },
    {
      "bufferView": 1,
      "byteOffset": 46808,
      "componentType": 5126,
      "count": 707,
      "max": [
        0.0,
        0.0
      ],
      "min": [
        0.0,
        0.0
      ],
      "type": "VEC2"
    },
    {
      "bufferView": 1,
      "byteOffset": 52464,
      "componentType": 5126,
      "count": 707,
      "max": [
        0.9107115268707275,
        0.9892336130142212
      ],
      "min": [
        0.29951366782188416,
        0.030608296394348145
      ],
      "type": "VEC2"
    },
    {
      "bufferView": 0,
      "byteOffset": 90264,
      "componentType": 5125,
      "count": 3180,
      "type": "SCALAR"
    }
  ],
  "asset": {
    "extras": {
      "author": "yuvi45554 (https://sketchfab.com/yuvraj4indore)",
      "license": "CC-BY-4.0 (http://creativecommons.org/licenses/by/4.0/)",
      "source": "https://sketchfab.com/3d-models/atlas-v-401-b653a17bf47a47f58a29f716a6d38945",
      "title": "Atlas_V_401"
    },
    "generator": "Sketchfab-12.68.0",
    "version": "2.0"
  },
  "bufferViews": [
    {
      "buffer": 0,
      "byteLength": 102984,
      "name": "floatBufferViews",
      "target": 34963
    },
    {
      "buffer": 0,
      "byteLength": 58120,
      "byteOffset": 102984,
      "byteStride": 8,
      "name": "floatBufferViews",
      "target": 34962
    },
    {
      "buffer": 0,
      "byteLength": 147120,
      "byteOffset": 161104,
      "byteStride": 12,
      "name": "floatBufferViews",
      "target": 34962
    }
  ],
  "buffers": [
    {
      "byteLength": 308224,
      "uri": "scene.bin"
    }
  ],
  "images": [
    {
      "uri": "textures/Atlas_401_baseColor.jpeg"
    }
  ],
  "materials": [
    {
      "doubleSided": true,
      "name": "Cube",
      "pbrMetallicRoughness": {
        "metallicFactor": 0.0,
        "roughnessFactor": 0.6
      }
    },
    {
      "name": "Atlas_401",
      "pbrMetallicRoughness": {
        "baseColorTexture": {
          "index": 0
        },
        "metallicFactor": 0.0,
        "roughnessFactor": 0.5
      }
    }
  ],
  "meshes": [
    {
      "name": "Cube",
      "primitives": [
        {
          "attributes": {
            "NORMAL": 1,
            "POSITION": 0
          },
          "indices": 2,
          "material": 0,
          "mode": 4
        }
      ]
    },
    {
      "name": "Cylinder_008",
      "primitives": [
        {
          "attributes": {
            "NORMAL": 4,
            "POSITION": 3,
            "TEXCOORD_0": 5
          },
          "indices": 6,
          "material": 1,
          "mode": 4
        }
      ]
    },
    {
      "name": "Cylinder_006",
      "primitives": [
        {
          "attributes": {
            "NORMAL": 8,
            "POSITION": 7,
            "TEXCOORD_0": 9
          },
          "indices": 10,
          "material": 1,
          "mode": 4
        }
      ]
    },
    {
      "name": "Cylinder_001",
      "primitives": [
        {
          "attributes": {
            "NORMAL": 12,
            "POSITION": 11
          },
          "indices": 13,
          "material": 0,
          "mode": 4
        }
      ]
    },
    {
      "name": "Cylinder_023",
      "primitives": [
        {
          "attributes": {
            "NORMAL": 15,
            "POSITION": 14,
            "TEXCOORD_0": 16,
            "TEXCOORD_1": 17
          },
          "indices": 18,
          "material": 1,
          "mode": 4
        }
      ]
    },
    {
      "name": "Cylinder_009",
      "primitives": [
        {
          "attributes": {
            "NORMAL": 20,
            "POSITION": 19,
            "TEXCOORD_0": 21,
            "TEXCOORD_1": 22
          },
          "indices": 23,
          "material": 1,
          "mode": 4
        }
      ]
    },
    {
      "name": "Cylinder_010",
      "primitives": [
        {
          "attributes": {
            "NORMAL": 25,
            "POSITION": 24,
            "TEXCOORD_0": 26,
            "TEXCOORD_1": 27
          },
          "indices": 28,
          "material": 1,
          "mode": 4
        }
      ]
    }
  ],
  "nodes": [
    {
      "children": [
        1
      ],
      "matrix": [
        1.0,
        0.0,
        0.0,
        0.0,
        0.0,
        2.220446049250313e-16,
        -1.0,
        0.0,
        0.0,
        1.0,
        2.220446049250313e-16,
        0.0,
        0.0,
        0.0,
        0.0,
        1.0
      ],
      "name": "Sketchfab_model"
    },
    {
      "children": [
        2
      ],
      "matrix": [
        0.009999999776482582,
        0.0,
        0.0,
        0.0,
        0.0,
        2.2204459996194763e-18,
        0.009999999776482582,
        0.0,
        0.0,
        -0.009999999776482582,
        2.2204459996194763e-18,
        0.0,
        0.0,
        0.0,
        0.0,
        1.0
      ],
      "name": "USDRoot"
    },
    {
      "children": [
        3
      ],
      "matrix": [
        5.297939777374268,
        0.0,
        0.0,
        0.0,
        0.0,
        5.297939777374268,
        0.0,
        0.0,
        0.0,
        0.0,
        5.297939777374268,
        0.0,
        0.0,
        0.0,
        0.0,
        1.0
      ],
      "name": "Meshes"
    },
    {
      "children": [
        4,
        5,
        7
      ],
      "name": "_root"
    },
    {
      "mesh": 0,
      "name": "Cube"
    },
    {
      "children": [
        6
      ],
      "matrix": [
        1.0,
        0.0,
        0.0,
        0.0,
        0.0,
        1.0,
        0.0,
        0.0,
        0.0,
        0.0,
        1.0,
        0.0,
        0.0,
        -9.104968070983887,
        0.0,
        1.0
      ],
      "name": "_st_stage"
    },
    {
      "mesh": 1,
      "name": "Cylinder_008"
    },
    {
      "children": [
        8,
        9,
        11,
        13,
        15
      ],
      "matrix": [
        1.0,
        0.0,
        0.0,
        0.0,
        0.0,
        1.0,
        0.0,
        0.0,
        0.0,
        0.0,
        1.0,
        0.0,
        0.0,
        11.943294525146484,
        0.0,
        1.0
      ],
      "name": "_nd_stage_centaur"
    },
    {
      "mesh": 2,
      "name": "Cylinder_006"
    },
    {
      "children": [
        10
      ],
      "matrix": [
        1.0,
        0.0,
        0.0,
        0.0,
        0.0,
        1.0,
        0.0,
        0.0,
        0.0,
        0.0,
        1.0,
        0.0,
        0.0,
        5.4462738037109375,
        0.0,
        1.0
      ],
      "name": "adapter"
    },
    {
      "mesh": 3,
      "name": "Cylinder_001"
    },
    {
      "children": [
        12
      ],
      "matrix": [
        0.5877852439880371,
        0.0,
        -0.8090170621871948,
        0.0,
        0.0,
        1.0,
        0.0,
        0.0,
        0.8090170621871948,
        0.0,
        0.5877852439880371,
        0.0,
        0.0,
        -5.465926170349121,
        0.0,
        1.0
      ],
      "name": "Cylinder_004"
    },
    {
      "mesh": 4,
      "name": "Cylinder_023"
    },
    {
      "children": [
        14
      ],
      "matrix": [
        1.0,
        0.0,
        0.0,
        0.0,
        0.0,
        1.0,
        0.0,
        0.0,
        0.0,
        0.0,
        1.0,
        0.0,
        0.0,
        4.014570236206055,
        0.0,
        1.0
      ],
      "name": "fairing_back"
    },
    {
      "mesh": 5,
      "name": "Cylinder_009"
    },
    {
      "children": [
        16
      ],
      "matrix": [
        1.0,
        0.0,
        0.0,
        0.0,
        0.0,
        1.0,
        0.0,
        0.0,
        0.0,
        0.0,
        1.0,
        0.0,
        0.0,
        4.014570236206055,
        0.0,
        1.0
      ],
      "name": "fairing_front"
    },
    {
      "mesh": 6,
      "name": "Cylinder_010"
    }
  ],
  "samplers": [
    {
      "magFilter": 9729,
      "minFilter": 9987,
      "wrapS": 10497,
      "wrapT": 10497
    }
  ],
  "scene": 0,
  "scenes": [
    {
      "name": "Sketchfab_Scene",
      "nodes": [
        0
      ]
    }
  ],
  "textures": [
    {
      "sampler": 0,
      "source": 0
    }
  ]
}
