{
  "accessors": [
    {
      "bufferView": 2,
      "componentType": 5126,
      "count": 336,
      "max": [
        1.0,
        1.0,
        0.017232999205589294
      ],
      "min": [
        -1.0,
        -1.0,
        -1.4082930088043213
      ],
      "type": "VEC3"
    },
    {
      "bufferView": 2,
      "byteOffset": 4032,
      "componentType": 5126,
      "count": 336,
      "max": [
        0.9951865673065186,
        0.9951865673065186,
        0.22140640020370483
      ],
      "min": [
        -0.9704867005348206,
        -0.9704867005348206,
        -1.0
      ],
      "type": "VEC3"
    },
    {
      "bufferView": 1,
      "componentType": 5126,
      "count": 336,
      "max": [
        0.9900000095367432,
        0.49000000953674316
      ],
      "min": [
        0.5099999904632568,
        0.009999999776482582
      ],
      "type": "VEC2"
    },
    {
      "bufferView": 0,
      "componentType": 5125,
      "count": 738,
      "type": "SCALAR"
    },
    {
      "bufferView": 2,
      "byteOffset": 8064,
      "componentType": 5126,
      "count": 1648,
      "max": [
        1.0,
        1.0,
        11.776622772216797
      ],
      "min": [
        -1.0,
        -1.0,
        -1.4082930088043213
      ],
      "type": "VEC3"
    },
    {
      "bufferView": 2,
      "byteOffset": 27840,
      "componentType": 5126,
      "count": 1648,
      "max": [
        0.9955152273178101,
        0.9949265718460083,
        1.0
      ],
      "min": [
        -0.9955152273178101,
        -0.9951865673065186,
        0.0
      ],
      "type": "VEC3"
    },
    {
      "bufferView": 1,
      "byteOffset": 2688,
      "componentType": 5126,
      "count": 1648,
      "max": [
        1.0,
        1.0
      ],
      "min": [
        0.0,
        0.009999999776482582
      ],
      "type": "VEC2"
    },
    {
      "bufferView": 0,
      "byteOffset": 2952,
      "componentType": 5125,
      "count": 2514,
      "type": "SCALAR"
    }
  ],
  "asset": {
    "extras": {
      "author": "irnelm (https://sketchfab.com/m.javad.haghbeigi)",
      "license": "CC-BY-4.0 (http://creativecommons.org/licenses/by/4.0/)",
      "source": "https://sketchfab.com/3d-models/missile-3d-model-d52a6475c9a140ca84aa031d14e4bdd6",
      "title": "Missile 3d Model"
    },
    "generator": "Sketchfab-12.67.0",
    "version": "2.0"
  },
  "bufferViews": [
    {
      "buffer": 0,
      "byteLength": 13008,
      "name": "floatBufferViews",
      "target": 34963
    },
    {
      "buffer": 0,
      "byteLength": 15872,
      "byteOffset": 13008,
      "byteStride": 8,
      "name": "floatBufferViews",
      "target": 34962
    },
    {
      "buffer": 0,
      "byteLength": 47616,
      "byteOffset": 28880,
      "byteStride": 12,
      "name": "floatBufferViews",
      "target": 34962
    }
  ],
  "buffers": [
    {
      "byteLength": 76496,
      "uri": "scene.bin"
    }
  ],
  "materials": [
    {
      "doubleSided": true,
      "name": "Material.001",
      "pbrMetallicRoughness": {
        "baseColorFactor": [
          0.0,
          0.0,
          0.0,
          1.0
        ],
        "metallicFactor": 0.0,
        "roughnessFactor": 0.7880318375580224
      }
    },
    {
      "doubleSided": true,
      "name": "Material.002",
      "pbrMetallicRoughness": {
        "baseColorFactor": [
          0.188266,
          0.188266,
          0.188266,
          1.0
        ],
        "metallicFactor": 0.0,
        "roughnessFactor": 0.7880318375580224
      }
    }
  ],
  "meshes": [
    {
      "name": "Object_0",
      "primitives": [
        {
          "attributes": {
            "NORMAL": 1,
            "POSITION": 0,
            "TEXCOORD_0": 2
          },
          "indices": 3,
          "material": 0,
          "mode": 4
        }
      ]
    },
    {
      "name": "Object_1",
      "primitives": [
        {
          "attributes": {
            "NORMAL": 5,
            "POSITION": 4,
            "TEXCOORD_0": 6
          },
          "indices": 7,
          "material": 1,
          "mode": 4
        }
      ]
    }
  ],
  "nodes": [
    {
      "children": [
        1
      ],
      "matrix": [
        0.27039089798927307,
        2.1377357965799928e-16,
        -0.9627506136894226,
        0.0,
        -0.9627506136894226,
        6.003884011935258e-17,
        -0.27039089798927307,
        0.0,
        0.0,
        1.0,
        2.220446049250313e-16,
        0.0,
        -1.1852518582600169e-05,
        3.6255830109436586e-22,
        -1.6328174297086662e-06,
        1.0
      ],
      "name": "Sketchfab_model"
    },
    {
      "children": [
        2,
        3
      ],
      "name": "Missile.obj.cleaner.materialmerger.gles"
    },
    {
      "mesh": 0,
      "name": "Object_2"
    },
    {
      "mesh": 1,
      "name": "Object_3"
    }
  ],
  "scene": 0,
  "scenes": [
    {
      "name": "Sketchfab_Scene",
      "nodes": [
        0
      ]
    }
  ]
}
